<svg width="45" height="36" viewBox="0 0 45 36" fill="none" xmlns="http://www.w3.org/2000/svg">
<path d="M35.5775 16.3989H5.93994V5.69641C5.9432 4.60569 6.37793 3.56058 7.14919 2.78932C7.92044 2.01807 8.96556 1.58334 10.0563 1.58008H34.7543C35.845 1.58334 36.8901 2.01807 37.6613 2.78932C38.4326 3.56058 38.8673 4.60569 38.8706 5.69641V16.3989H35.5775Z" stroke="#6F6F6F" stroke-width="1.54793" stroke-linecap="round" stroke-linejoin="round"/>
<path d="M0.999939 34.5108V22.9851C1.0051 21.2399 1.70065 19.5677 2.93467 18.3337C4.16869 17.0996 5.84091 16.4041 7.58607 16.3989H37.2237C38.9688 16.4041 40.641 17.0996 41.8751 18.3337C43.1091 19.5677 43.8046 21.2399 43.8098 22.9851V34.5108" stroke="#6F6F6F" stroke-width="1.54793" stroke-linecap="round" stroke-linejoin="round"/>
<path d="M0.999939 34.5106V33.6873C1.00184 33.0329 1.26266 32.4058 1.72543 31.943C2.18819 31.4803 2.81529 31.2194 3.46974 31.2175H41.34C41.9944 31.2194 42.6215 31.4803 43.0843 31.943C43.5471 32.4058 43.8079 33.0329 43.8098 33.6873V34.5106" stroke="#6F6F6F" stroke-width="1.54793" stroke-linecap="round" stroke-linejoin="round"/>
<path d="M7.58582 16.3988V14.7523C7.58826 13.8797 7.93599 13.0435 8.55303 12.4264C9.17007 11.8094 10.0063 11.4617 10.8789 11.4592H19.1115C19.9842 11.4617 20.8204 11.8094 21.4374 12.4264C22.0544 13.0435 22.4022 13.8797 22.4046 14.7523V16.3988" stroke="#6F6F6F" stroke-width="1.54793" stroke-linecap="round" stroke-linejoin="round"/>
<path d="M22.4048 16.3988V14.7523C22.4073 13.8797 22.755 13.0435 23.3721 12.4264C23.9891 11.8094 24.8253 11.4617 25.6979 11.4592H33.9306C34.8032 11.4617 35.6394 11.8094 36.2564 12.4264C36.8735 13.0435 37.2212 13.8797 37.2236 14.7523V16.3988" stroke="#6F6F6F" stroke-width="1.54793" stroke-linecap="round" stroke-linejoin="round"/>
</svg>
