<svg width="41" height="29" viewBox="0 0 41 29" fill="none" xmlns="http://www.w3.org/2000/svg">
<path d="M23.0051 11.5355H16.9803C16.6021 11.5355 16.2957 11.842 16.2957 12.2202C16.2957 12.5984 16.6021 12.9048 16.9803 12.9048H23.0051C23.3833 12.9048 23.6897 12.5984 23.6897 12.2202C23.6897 11.842 23.3833 11.5355 23.0051 11.5355Z" fill="#6F6F6F"/>
<path d="M23.0051 4.02783H16.9803C16.6021 4.02783 16.2957 4.33428 16.2957 4.71247C16.2957 5.09066 16.6021 5.39711 16.9803 5.39711H23.0051C23.3833 5.39711 23.6897 5.09066 23.6897 4.71247C23.6897 4.33428 23.3833 4.02783 23.0051 4.02783Z" fill="#6F6F6F"/>
<path d="M16.9803 20.4125H23.0051C23.3833 20.4125 23.6897 20.106 23.6897 19.7278C23.6897 19.3497 23.3833 19.0432 23.0051 19.0432H16.9803C16.6021 19.0432 16.2957 19.3497 16.2957 19.7278C16.2957 20.106 16.6021 20.4125 16.9803 20.4125Z" fill="#6F6F6F"/>
<path d="M39.8458 0H0.958491C0.42913 0 0 0.42913 0 0.958491V8.46622V15.9739V23.4817C0 24.011 0.42913 24.4402 0.958491 24.4402H2.50604V27.8877C2.50604 28.4171 2.93517 28.8462 3.46453 28.8462H5.88787C6.29291 28.8462 6.65412 28.5915 6.7905 28.2103L8.13786 24.4402H32.6665L34.0138 28.2103C34.1502 28.5918 34.5114 28.8462 34.9165 28.8462H37.3398C37.8692 28.8462 38.2983 28.4171 38.2983 27.8877V24.4402H39.8458C40.3752 24.4402 40.8043 24.011 40.8043 23.4817V15.9739V8.46622V0.958491C40.8043 0.42913 40.3752 0 39.8458 0ZM1.91698 9.42471H38.8874V15.0154H1.91698V9.42471ZM1.91698 1.91698H38.8874V7.50772H1.91698V1.91698ZM5.21255 26.9292H4.42303V24.4402H6.10203L5.21255 26.9292ZM36.3813 26.9292H35.5918L34.7023 24.4402H36.3813V26.9292ZM38.8874 22.5232H37.3398H33.3418H7.46254H3.46453H1.91698V16.9324H38.8874V22.5232Z" fill="#6F6F6F"/>
</svg>
