<svg width="36" height="35" viewBox="0 0 36 35" fill="none" xmlns="http://www.w3.org/2000/svg">
<path d="M30.4833 1H5.0551C3.98086 1.00402 2.95176 1.43254 2.19215 2.19215C1.43254 2.95176 1.00402 3.98086 1 5.0551V5.74111C1.00312 6.34525 1.14169 6.94099 1.40552 7.48448C1.66935 8.02797 2.05172 8.50537 2.52447 8.88153V28.2728C2.52447 28.6771 2.68509 29.0649 2.97098 29.3508C3.25688 29.6367 3.64463 29.7973 4.04895 29.7973H8.05831L6.88447 32.1755C6.70474 32.5374 6.67605 32.9558 6.80468 33.3389C6.93331 33.7219 7.20876 34.0382 7.57048 34.2183C7.77954 34.3195 8.00896 34.3717 8.24125 34.3707C8.52696 34.3713 8.80709 34.2916 9.04968 34.1406C9.29227 33.9897 9.48756 33.7736 9.61327 33.517L11.4579 29.7973H24.0805L25.9251 33.517C26.0509 33.7736 26.2461 33.9897 26.4887 34.1406C26.7313 34.2916 27.0114 34.3713 27.2972 34.3707C27.5294 34.3717 27.7589 34.3195 27.9679 34.2183C28.3297 34.0382 28.6051 33.7219 28.7337 33.3389C28.8624 32.9558 28.8337 32.5374 28.6539 32.1755L27.4801 29.7973H31.4895C31.8938 29.7973 32.2815 29.6367 32.5674 29.3508C32.8533 29.0649 33.0139 28.6771 33.0139 28.2728V8.89677C33.4867 8.52062 33.8691 8.04322 34.1329 7.49973C34.3967 6.95624 34.5353 6.36049 34.5384 5.75636V5.0551C34.5344 3.98086 34.1059 2.95176 33.3463 2.19215C32.5867 1.43254 31.5576 1.00402 30.4833 1ZM4.04895 5.0551C4.04895 4.78825 4.15495 4.53233 4.34364 4.34364C4.53233 4.15495 4.78825 4.04895 5.0551 4.04895H30.4833C30.7502 4.04895 31.0061 4.15495 31.1948 4.34364C31.3835 4.53233 31.4895 4.78825 31.4895 5.0551V5.74111C31.4895 5.87324 31.4634 6.00408 31.4129 6.12615C31.3623 6.24822 31.2882 6.35914 31.1948 6.45257C31.1013 6.546 30.9904 6.62011 30.8683 6.67068C30.7463 6.72124 30.6154 6.74726 30.4833 6.74726H5.0551C4.79087 6.74729 4.53724 6.64338 4.34898 6.45798C4.16072 6.27257 4.05295 6.02055 4.04895 5.75636V5.0551ZM29.965 26.7484H5.57342V9.81146H29.965V26.7484Z" fill="#6F6F6F" stroke="#EAEAEA" stroke-width="1.03195"/>
</svg>
