<svg width="35" height="33" viewBox="0 0 35 33" fill="none" xmlns="http://www.w3.org/2000/svg">
<path d="M10.2344 8.2975L15.1244 1.79125C15.4219 1.39 15.7756 1.095 16.1856 0.90625C16.5956 0.71875 17.0337 0.625 17.5 0.625C17.9662 0.625 18.4044 0.71875 18.8144 0.90625C19.2244 1.09375 19.5781 1.38813 19.8756 1.78938L24.7656 8.2975L32.3031 10.8625C32.9706 11.0875 33.4844 11.4663 33.8444 11.9987C34.2056 12.53 34.3862 13.1169 34.3862 13.7594C34.3862 14.0556 34.3425 14.35 34.255 14.6425C34.1675 14.935 34.025 15.2156 33.8275 15.4844L28.8869 22.1838L29.0744 29.365C29.1056 30.2475 28.8144 30.9906 28.2006 31.5944C27.5856 32.1981 26.8706 32.5 26.0556 32.5L25.2062 32.395L17.5 30.1244L9.79375 32.395C9.6375 32.4575 9.4875 32.4906 9.34375 32.4944C9.1975 32.4981 9.06437 32.5 8.94437 32.5C8.11187 32.5 7.39313 32.1981 6.78813 31.5944C6.18188 30.9906 5.89437 30.2481 5.92562 29.3669L6.11312 22.1369L1.18375 15.4844C0.985 15.2131 0.8425 14.93 0.75625 14.635C0.66875 14.34 0.625 14.045 0.625 13.75C0.625 13.1175 0.810625 12.5287 1.18187 11.9837C1.55187 11.44 2.06937 11.0537 2.73437 10.825L10.2344 8.2975ZM11.4137 9.91L3.36625 12.6212C3.005 12.7413 2.75812 12.9875 2.62562 13.36C2.49437 13.7325 2.54875 14.075 2.78875 14.3875L8.02375 21.5875L7.79875 29.3875C7.77625 29.7962 7.92125 30.1213 8.23375 30.3625C8.54625 30.6025 8.89437 30.6625 9.27812 30.5425L17.5 28.18L25.7219 30.5894C26.1056 30.7094 26.4537 30.6494 26.7662 30.4094C27.0787 30.1681 27.2231 29.8431 27.1994 29.4344L26.9744 21.5894L32.2112 14.4831C32.4513 14.1706 32.5056 13.8275 32.3744 13.4537C32.2419 13.0813 31.995 12.835 31.6337 12.715L23.5862 9.91L18.4019 3.00437C18.1856 2.69187 17.885 2.53563 17.5 2.53563C17.115 2.53563 16.815 2.69187 16.6 3.00437L11.4137 9.91Z" fill="#6F6F6F"/>
</svg>
