<svg width="26" height="34" viewBox="0 0 26 34" fill="none" xmlns="http://www.w3.org/2000/svg">
<path d="M6.93532 9.66667C6.67499 9.66667 6.45743 9.57867 6.28266 9.40267C6.10666 9.22789 6.01866 9.01033 6.01866 8.75V5.78917C6.01866 5.52883 6.10666 5.31067 6.28266 5.13467C6.45866 4.95867 6.67682 4.87128 6.93716 4.8725C7.19749 4.8725 7.41504 4.95989 7.58982 5.13467C7.7646 5.30944 7.85199 5.52761 7.85199 5.78917V8.75C7.85199 9.01033 7.76399 9.22789 7.58799 9.40267C7.41199 9.57744 7.19443 9.66544 6.93532 9.66667ZM6.93532 24.5442C6.67499 24.5442 6.45743 24.4568 6.28266 24.282C6.10666 24.106 6.01866 23.8878 6.01866 23.6275V17.495C6.01866 17.2359 6.10666 17.0183 6.28266 16.8423C6.45866 16.6663 6.67682 16.5783 6.93716 16.5783C7.19749 16.5783 7.41504 16.6663 7.58982 16.8423C7.7646 17.0183 7.85199 17.2359 7.85199 17.495V23.6293C7.85199 23.8897 7.76399 24.1078 7.58799 24.2838C7.41199 24.4598 7.19443 24.5454 6.93532 24.5442ZM3.12749 33.5C2.31349 33.5 1.61682 33.2097 1.03749 32.6292C0.456934 32.0498 0.166656 31.3532 0.166656 30.5392V3.46083C0.166656 2.64683 0.456934 1.95017 1.03749 1.37083C1.61682 0.790278 2.31349 0.5 3.12749 0.5H22.8725C23.6865 0.5 24.3832 0.790278 24.9625 1.37083C25.543 1.95017 25.8333 2.64683 25.8333 3.46083V30.5392C25.8333 31.3532 25.543 32.0498 24.9625 32.6292C24.3832 33.2097 23.6865 33.5 22.8725 33.5H3.12749ZM3.12749 31.6667H22.8725C23.2013 31.6667 23.4714 31.5609 23.6828 31.3495C23.8943 31.1381 24 30.8679 24 30.5392V14.0392H1.99999V30.5392C1.99999 30.8679 2.10571 31.1381 2.31716 31.3495C2.5286 31.5609 2.79871 31.6667 3.12749 31.6667ZM1.99999 12.2058H24V3.46083C24 3.13206 23.8943 2.86194 23.6828 2.6505C23.4714 2.43906 23.2013 2.33333 22.8725 2.33333H3.12749C2.79871 2.33333 2.5286 2.43906 2.31716 2.6505C2.10571 2.86194 1.99999 3.13206 1.99999 3.46083V12.2058Z" fill="#6F6F6F"/>
</svg>
