<svg width="41" height="35" viewBox="0 0 41 35" fill="none" xmlns="http://www.w3.org/2000/svg">
<path d="M39.6244 12.549L36.8569 2.47134C36.7443 2.04825 36.5017 1.67526 36.1661 1.40952C35.8306 1.14377 35.4206 0.999922 34.9991 1H5.6991C4.82823 1 4.07347 1.60466 3.84124 2.47134L1.0738 12.549C0.725455 13.8188 1.65438 15.1087 2.93166 15.1087H7.18925L4.86693 33.2485H8.73747L10.0341 23.1708H30.6834L31.9607 33.2485H35.8312L33.5089 15.1087H37.7665C39.0438 15.1087 39.9727 13.8188 39.6244 12.549ZM10.5373 19.1398L11.0598 15.1087H29.6384L30.1609 19.1398H10.5373ZM5.50557 11.0776L7.1699 5.03106H33.5476L35.212 11.0776H5.50557Z" fill="#6F6F6F" stroke="#EAEAEA" stroke-width="1.93491"/>
</svg>
