<svg width="42" height="35" viewBox="0 0 42 35" fill="none" xmlns="http://www.w3.org/2000/svg">
<path d="M38.6816 34.0975H2.59585C1.17042 34.0975 0.0122681 32.9393 0.0122681 31.5139V24.1055H1.88783V31.5139C1.88783 31.9031 2.20667 32.2219 2.59585 32.2219H38.6863C39.0755 32.2219 39.3943 31.9031 39.3943 31.5139V24.1055H41.2699V31.5139C41.2652 32.9393 40.107 34.0975 38.6816 34.0975Z" fill="#6F6F6F"/>
<path d="M41.1763 23.5429L35.1042 1.80522C34.8088 0.740845 33.8288 0 32.7222 0H28.2537C27.8927 0 27.5504 0.0984672 27.2597 0.276645C26.969 0.103156 26.6267 0 26.2656 0H21.6283C21.2673 0 20.925 0.0984672 20.6343 0.276645C20.3436 0.103156 20.006 0 19.6402 0H15.0029C14.6419 0 14.2996 0.0984672 14.0089 0.276645C13.7182 0.103156 13.3806 0 13.0148 0H8.5463C7.43972 0 6.45974 0.740845 6.16434 1.80522L0.101602 23.5429C0.0125135 23.8618 -0.0156199 24.1853 0.00782459 24.5042C0.0500246 25.0059 0.232892 25.4888 0.547047 25.9015C0.894026 26.3563 1.35823 26.6798 1.88338 26.8439C2.14127 26.9283 2.41792 26.9705 2.69925 26.9705H8.98706C9.3059 26.9705 9.56848 27.2331 9.56848 27.5519H11.444C11.444 27.2331 11.7066 26.9705 12.0255 26.9705H19.1198C19.4386 26.9705 19.7012 27.2331 19.7012 27.5519H21.5767C21.5767 27.2331 21.8346 26.9705 22.1582 26.9705H29.2525C29.5713 26.9705 29.8339 27.2331 29.8339 27.5519H31.7094C31.7094 27.2331 31.972 26.9705 32.2909 26.9705H38.5787C38.86 26.9705 39.1367 26.9283 39.3945 26.8439C39.9197 26.6798 40.3839 26.3563 40.7309 25.9015C41.045 25.4841 41.2279 25.0012 41.2701 24.5042C41.2935 24.19 41.2654 23.8618 41.1763 23.5429ZM39.3899 24.3916C39.3711 24.5276 39.3148 24.6589 39.2304 24.7714C39.071 24.9777 38.8319 25.0997 38.574 25.0997H32.2862C31.7141 25.0997 31.1843 25.2966 30.767 25.6248C30.3497 25.2966 29.8198 25.0997 29.2478 25.0997H22.1582C21.5861 25.0997 21.0563 25.2966 20.639 25.6248C20.2217 25.2966 19.6918 25.0997 19.1198 25.0997H12.0302C11.4581 25.0997 10.9283 25.2966 10.5109 25.6248C10.0936 25.2966 9.56379 25.0997 8.99175 25.0997H2.70394C2.44136 25.0997 2.20223 24.9824 2.04749 24.7714C1.96309 24.6589 1.90683 24.5276 1.88807 24.3916C1.87869 24.3166 1.87869 24.2369 1.88807 24.1572C1.89276 24.1197 1.90214 24.0869 1.91152 24.0493L7.97895 2.31163C8.04928 2.05374 8.28841 1.87556 8.55568 1.87556H13.0242C13.0523 1.87556 13.0805 1.899 13.0805 1.93183H14.956C14.956 1.899 14.9795 1.87556 15.0123 1.87556H19.6496C19.6777 1.87556 19.7059 1.899 19.7059 1.93183H21.5814C21.5814 1.899 21.6049 1.87556 21.6377 1.87556H26.275C26.3078 1.87556 26.3313 1.899 26.3313 1.93183H28.2068C28.2068 1.899 28.2303 1.87556 28.2631 1.87556H32.7316C32.9989 1.87556 33.2333 2.05374 33.3084 2.31163L39.3805 24.0493C39.3899 24.0869 39.3992 24.1197 39.4039 24.1572C39.4039 24.2369 39.4039 24.3119 39.3899 24.3916Z" fill="#6F6F6F"/>
<path d="M12.7242 19.698C12.7242 20.3216 12.2178 20.828 11.5942 20.828C10.9706 20.828 10.4642 20.3216 10.4642 19.698C10.4642 19.0744 10.9706 18.568 11.5942 18.568C12.2178 18.568 12.7242 19.0744 12.7242 19.698Z" fill="#6F6F6F"/>
<path d="M21.7689 19.698C21.7689 20.3216 21.2625 20.828 20.6389 20.828C20.0153 20.828 19.5089 20.3216 19.5089 19.698C19.5089 19.0744 20.0153 18.568 20.6389 18.568C21.2625 18.568 21.7689 19.0744 21.7689 19.698Z" fill="#6F6F6F"/>
<path d="M30.8698 19.698C30.8698 20.3216 30.3634 20.828 29.7398 20.828C29.1161 20.828 28.6097 20.3216 28.6097 19.698C28.6097 19.0744 29.1161 18.568 29.7398 18.568C30.3634 18.568 30.8698 19.0744 30.8698 19.698Z" fill="#6F6F6F"/>
<path d="M13.6382 12.9928C13.6382 13.6165 13.1318 14.1229 12.5082 14.1229C11.8845 14.1229 11.3781 13.6165 11.3781 12.9928C11.3781 12.3692 11.8845 11.8628 12.5082 11.8628C13.1318 11.8581 13.6382 12.3692 13.6382 12.9928Z" fill="#6F6F6F"/>
<path d="M21.7689 12.9929C21.7689 13.6166 21.2625 14.123 20.6389 14.123C20.0153 14.123 19.5089 13.6166 19.5089 12.9929C19.5089 12.3693 20.0153 11.8629 20.6389 11.8629C21.2625 11.8629 21.7689 12.3693 21.7689 12.9929Z" fill="#6F6F6F"/>
<path d="M29.9512 12.9928C29.9512 13.6165 29.4448 14.1229 28.8212 14.1229C28.1976 14.1229 27.6912 13.6165 27.6912 12.9928C27.6912 12.3692 28.1976 11.8628 28.8212 11.8628C29.4448 11.8581 29.9512 12.3692 29.9512 12.9928Z" fill="#6F6F6F"/>
<path d="M14.5058 6.57387C14.5058 7.19749 13.9994 7.70389 13.3758 7.70389C12.7522 7.70389 12.2458 7.19749 12.2458 6.57387C12.2458 5.95025 12.7522 5.44385 13.3758 5.44385C13.9994 5.44385 14.5058 5.95025 14.5058 6.57387Z" fill="#6F6F6F"/>
<path d="M21.7689 6.57387C21.7689 7.19749 21.2625 7.70389 20.6389 7.70389C20.0153 7.70389 19.5089 7.19749 19.5089 6.57387C19.5089 5.95025 20.0153 5.44385 20.6389 5.44385C21.2625 5.44385 21.7689 5.95025 21.7689 6.57387Z" fill="#6F6F6F"/>
<path d="M29.0839 6.57387C29.0839 7.19749 28.5775 7.70389 27.9539 7.70389C27.3303 7.70389 26.8239 7.19749 26.8239 6.57387C26.8239 5.95025 27.3303 5.44385 27.9539 5.44385C28.5775 5.44385 29.0839 5.95025 29.0839 6.57387Z" fill="#6F6F6F"/>
</svg>
