<svg width="59" height="30" viewBox="0 0 59 30" fill="none" xmlns="http://www.w3.org/2000/svg">
<path d="M11.0093 29.8614H7.00599C6.85398 29.8622 6.70377 29.8284 6.56677 29.7625C6.42978 29.6966 6.3096 29.6004 6.21535 29.4811C6.1166 29.3634 6.04628 29.2245 6.00983 29.0753C5.97338 28.926 5.97179 28.7704 6.00517 28.6204L8.00681 20.6138C8.06161 20.3918 8.19081 20.1952 8.37291 20.0568C8.555 19.9184 8.77901 19.8465 9.00763 19.8532H13.0109C13.1629 19.8524 13.3131 19.8862 13.4501 19.9521C13.5871 20.018 13.7073 20.1142 13.8016 20.2335C13.8951 20.3538 13.96 20.4939 13.9912 20.643C14.0224 20.7922 14.0192 20.9465 13.9817 21.0942L11.9801 29.1008C11.9264 29.3178 11.8017 29.5105 11.6257 29.6484C11.4498 29.7862 11.2328 29.8612 11.0093 29.8614ZM8.28704 27.8598H10.2286L11.7299 21.8548H9.78827L8.28704 27.8598Z" fill="#6F6F6F"/>
<path d="M51.0414 29.8616H47.0381C46.8095 29.8682 46.5855 29.7964 46.4034 29.658C46.2213 29.5196 46.0921 29.323 46.0373 29.101L44.0356 21.0944C43.9981 20.9467 43.9949 20.7924 44.0261 20.6432C44.0573 20.4941 44.1222 20.354 44.2158 20.2337C44.3131 20.1103 44.4381 20.0116 44.5807 19.9455C44.7233 19.8795 44.8794 19.8479 45.0364 19.8534H49.0397C49.2683 19.8467 49.4924 19.9186 49.6744 20.057C49.8565 20.1954 49.9857 20.392 50.0405 20.614L52.0422 28.6206C52.0797 28.7683 52.0829 28.9226 52.0517 29.0718C52.0205 29.2209 51.9556 29.361 51.862 29.4813C51.7647 29.6046 51.6397 29.7034 51.4971 29.7694C51.3545 29.8355 51.1984 29.8671 51.0414 29.8616ZM47.8187 27.8599H49.7603L48.2591 21.855H46.3175L47.8187 27.8599Z" fill="#6F6F6F"/>
<path d="M47.0387 21.8549H11.0092C10.7437 21.8549 10.4892 21.7495 10.3015 21.5618C10.1138 21.3741 10.0084 21.1195 10.0084 20.8541V10.8459C10.0084 10.5805 10.1138 10.3259 10.3015 10.1382C10.4892 9.95054 10.7437 9.84509 11.0092 9.84509H47.0387C47.3041 9.84509 47.5587 9.95054 47.7464 10.1382C47.934 10.3259 48.0395 10.5805 48.0395 10.8459V20.8541C48.0395 21.1195 47.934 21.3741 47.7464 21.5618C47.5587 21.7495 47.3041 21.8549 47.0387 21.8549ZM12.01 19.8533H46.0378V11.8467H12.01V19.8533Z" fill="#6F6F6F"/>
<path d="M11.009 21.8546H5.0041C4.73866 21.8546 4.4841 21.7492 4.29641 21.5615C4.10872 21.3738 4.00328 21.1192 4.00328 20.8538V12.507C3.42727 12.3067 2.88676 12.0162 2.40197 11.6463C1.65618 11.0869 1.05086 10.3616 0.633956 9.5278C0.217048 8.69398 0 7.77455 0 6.84232C0 5.72714 0.310542 4.63398 0.896829 3.68535C1.48312 2.73672 2.32198 1.97009 3.31944 1.47136C4.31689 0.972634 5.43351 0.761519 6.54419 0.861669C7.65487 0.961819 8.71572 1.36928 9.60786 2.03839C10.3508 2.6004 10.954 3.32624 11.3706 4.15946C11.7872 4.99267 12.006 5.91077 12.0098 6.84232V20.8538C12.0098 21.1192 11.9044 21.3738 11.7167 21.5615C11.529 21.7492 11.2744 21.8546 11.009 21.8546ZM6.00491 19.853H10.0082V6.84232C10.0082 5.78058 9.58642 4.76234 8.83566 4.01158C8.0849 3.26082 7.06665 2.83904 6.00491 2.83904C4.94318 2.83904 3.92493 3.26082 3.17417 4.01158C2.42341 4.76234 2.00164 5.78058 2.00164 6.84232C2.00164 7.46381 2.14634 8.07676 2.42428 8.63264C2.70221 9.18852 3.10576 9.67205 3.60295 10.0449C4.0747 10.4043 4.62247 10.6508 5.20426 10.7655C5.43372 10.8123 5.63951 10.9381 5.78581 11.121C5.9321 11.3038 6.00964 11.5322 6.00491 11.7663V19.853Z" fill="#6F6F6F"/>
<path d="M53.0435 21.8549H47.0385C46.7731 21.8549 46.5185 21.7495 46.3309 21.5618C46.1432 21.3741 46.0377 21.1195 46.0377 20.8541V6.84264C46.0374 6.56797 46.0575 6.29366 46.0978 6.02196C46.0978 5.85183 46.1578 5.67168 46.1878 5.49153C46.1878 5.49153 46.1878 5.43148 46.1878 5.40146C46.1878 5.2113 46.2979 5.02115 46.358 4.841C46.3623 4.80108 46.3623 4.76082 46.358 4.7209C46.4481 4.51073 46.5381 4.31056 46.6482 4.1104C46.8455 3.70933 47.0945 3.33584 47.3888 2.99949C47.5323 2.82377 47.6896 2.65978 47.8592 2.50909C48.0042 2.3662 48.158 2.2325 48.3196 2.10876L48.4197 2.03871C48.5284 1.95523 48.642 1.87836 48.76 1.80852C49.0251 1.63456 49.3067 1.48707 49.6006 1.36816L49.9009 1.24806C50.1367 1.15358 50.3815 1.08317 50.6315 1.03789H50.9017C51.6155 0.897853 52.3497 0.897853 53.0635 1.03789L53.3537 1.09793C53.5985 1.14284 53.837 1.21676 54.0643 1.31811C54.175 1.35106 54.2822 1.39463 54.3846 1.44822C54.6624 1.55951 54.9275 1.70043 55.1752 1.86857L55.5055 2.08875L55.6056 2.1588C55.7757 2.28891 55.9458 2.43903 56.096 2.57915C56.2617 2.73422 56.4156 2.90149 56.5563 3.07956C56.8525 3.41821 57.1016 3.79524 57.2969 4.20047C57.3967 4.38591 57.4869 4.57631 57.5672 4.77094V4.89104C57.6377 5.07432 57.6978 5.26144 57.7473 5.4515C57.7508 5.47807 57.7508 5.50499 57.7473 5.53156C57.7473 5.71171 57.8174 5.89186 57.8374 6.072C57.9266 6.32326 57.9969 6.58086 58.0476 6.84264C58.0476 7.77487 57.8305 8.6943 57.4136 9.52811C56.9967 10.3619 56.3914 11.0872 55.6456 11.6466C55.1608 12.0165 54.6203 12.307 54.0443 12.5073V20.8541C54.0443 21.1195 53.9388 21.3741 53.7511 21.5618C53.5635 21.7495 53.3089 21.8549 53.0435 21.8549ZM48.0394 19.8533H52.0426V11.7467C52.0379 11.5125 52.1155 11.2841 52.2617 11.1013C52.408 10.9184 52.6138 10.7926 52.8433 10.7458C53.4251 10.6311 53.9729 10.3846 54.4446 10.0252C54.9391 9.65438 55.341 9.17405 55.6188 8.62189C55.8966 8.06973 56.0428 7.46074 56.0459 6.84264C56.0562 6.66264 56.0562 6.48219 56.0459 6.30219C56.0292 6.17099 56.0058 6.04071 55.9759 5.91187C55.9805 5.89213 55.9805 5.87157 55.9759 5.85183C55.9759 5.74173 55.9058 5.62164 55.8658 5.51155C55.8684 5.4749 55.8684 5.4381 55.8658 5.40146C55.8242 5.28449 55.774 5.17075 55.7156 5.06118C55.5716 4.77938 55.3971 4.51424 55.1952 4.27053C55.0993 4.15365 54.9956 4.04331 54.885 3.94026L54.5847 3.67004C54.5291 3.64166 54.4784 3.60448 54.4346 3.55995L54.3045 3.47988C54.1294 3.35937 53.9414 3.25867 53.744 3.17964C53.6797 3.14737 53.6127 3.12059 53.5439 3.09957C53.3924 3.03408 53.2349 2.9838 53.0735 2.94945H52.9133C52.4213 2.84943 51.9142 2.84943 51.4221 2.94945H51.262C51.0989 2.98521 50.9384 3.03202 50.7816 3.08956L50.6015 3.15962C50.388 3.2461 50.1835 3.35337 49.991 3.47988C49.9166 3.52358 49.8462 3.57382 49.7808 3.63001L49.6807 3.69006C49.4766 3.87257 49.2797 4.06287 49.0902 4.26052C48.8906 4.50233 48.7162 4.76391 48.5698 5.04116C48.4997 5.18128 48.4497 5.30137 48.3997 5.41146C48.3952 5.43796 48.3952 5.46503 48.3997 5.49153C48.3475 5.61511 48.304 5.74219 48.2695 5.87184C48.2752 5.89823 48.2752 5.92552 48.2695 5.95191L48.2095 6.3122C48.1432 6.48578 48.0864 6.66285 48.0394 6.84264V19.8533Z" fill="#6F6F6F"/>
<path d="M52.0427 2.83928H6.00503C5.7396 2.83928 5.48503 2.73384 5.29734 2.54615C5.10965 2.35846 5.00421 2.1039 5.00421 1.83847C5.00421 1.57303 5.10965 1.31847 5.29734 1.13078C5.48503 0.943089 5.7396 0.837646 6.00503 0.837646H52.0427C52.3081 0.837646 52.5627 0.943089 52.7504 1.13078C52.9381 1.31847 53.0435 1.57303 53.0435 1.83847C53.0435 2.1039 52.9381 2.35846 52.7504 2.54615C52.5627 2.73384 52.3081 2.83928 52.0427 2.83928Z" fill="#6F6F6F"/>
</svg>
