<svg width="35" height="42" viewBox="0 0 35 42" fill="none" xmlns="http://www.w3.org/2000/svg">
<path d="M28.5359 17.0493C30.9683 17.0493 32.9585 15.1144 32.9585 12.7495V6.2998C32.9585 3.93491 30.9683 2 28.5359 2H6.42265C3.99019 2 2 3.93491 2 6.2998V12.7495C2 15.1144 3.99019 17.0493 6.42265 17.0493H8.63397V21.3491H6.42265C3.99019 21.3491 2 23.284 2 25.6489V40.6982H6.42265V34.2485H28.5359V40.6982H32.9585V25.6489C32.9585 23.284 30.9683 21.3491 28.5359 21.3491H26.3246V17.0493H28.5359ZM6.42265 12.7495V6.2998H28.5359V12.7495H6.42265ZM28.5359 29.9487H6.42265V25.6489H28.5359V29.9487ZM21.9019 21.3491H13.0566V17.0493H21.9019V21.3491Z" fill="#6F6F6F" stroke="#EAEAEA" stroke-width="2.1929"/>
</svg>
