<svg width="11" height="20" viewBox="0 0 11 20" fill="none" xmlns="http://www.w3.org/2000/svg">
<path d="M0.227887 10.5488L9.47848 19.7738C9.78156 20.0759 10.2723 20.0754 10.5748 19.7723C10.8772 19.4692 10.8764 18.9782 10.5733 18.6759L1.87331 9.99997L10.5736 1.32407C10.8767 1.02172 10.8775 0.531061 10.5752 0.227938C10.4235 0.0759849 10.2248 7.57898e-06 10.0261 7.56161e-06C9.82785 7.54428e-06 9.62992 0.0754775 9.47852 0.226375L0.227887 9.45114C0.081911 9.59637 -2.92246e-06 9.79403 -2.94047e-06 9.99997C-2.95847e-06 10.2059 0.0821456 10.4033 0.227887 10.5488Z" fill="black"/>
</svg>
