<svg width="29" height="22" viewBox="0 0 29 22" fill="none" xmlns="http://www.w3.org/2000/svg">
<path d="M2.25004 0.166748H12.4584C12.9999 0.166748 13.5192 0.395021 13.9021 0.80135C14.2849 1.20768 14.5 1.75878 14.5 2.33341C14.5 2.90805 14.2849 3.45915 13.9021 3.86548C13.5192 4.27181 12.9999 4.50008 12.4584 4.50008H2.25004C1.70856 4.50008 1.18925 4.27181 0.806364 3.86548C0.423478 3.45915 0.208374 2.90805 0.208374 2.33341C0.208374 1.75878 0.423478 1.20768 0.806364 0.80135C1.18925 0.395021 1.70856 0.166748 2.25004 0.166748ZM16.5417 17.5001H26.75C27.2915 17.5001 27.8108 17.7284 28.1937 18.1347C28.5766 18.541 28.7917 19.0921 28.7917 19.6667C28.7917 20.2414 28.5766 20.7925 28.1937 21.1988C27.8108 21.6051 27.2915 21.8334 26.75 21.8334H16.5417C16.0002 21.8334 15.4809 21.6051 15.098 21.1988C14.7151 20.7925 14.5 20.2414 14.5 19.6667C14.5 19.0921 14.7151 18.541 15.098 18.1347C15.4809 17.7284 16.0002 17.5001 16.5417 17.5001ZM2.25004 8.83341H26.75C27.2915 8.83341 27.8108 9.06169 28.1937 9.46802C28.5766 9.87434 28.7917 10.4254 28.7917 11.0001C28.7917 11.5747 28.5766 12.1258 28.1937 12.5321C27.8108 12.9385 27.2915 13.1667 26.75 13.1667H2.25004C1.70856 13.1667 1.18925 12.9385 0.806364 12.5321C0.423478 12.1258 0.208374 11.5747 0.208374 11.0001C0.208374 10.4254 0.423478 9.87434 0.806364 9.46802C1.18925 9.06169 1.70856 8.83341 2.25004 8.83341Z" fill="#424242"/>
</svg>
