<svg width="13" height="17" viewBox="0 0 13 17" fill="none" xmlns="http://www.w3.org/2000/svg">
<path d="M6.5 0.583252C3.175 0.583252 0.166664 3.13242 0.166664 7.07492C0.166664 9.59242 2.10625 12.5533 5.9775 15.9653C6.27833 16.2266 6.72958 16.2266 7.03041 15.9653C10.8937 12.5533 12.8333 9.59242 12.8333 7.07492C12.8333 3.13242 9.825 0.583252 6.5 0.583252ZM6.5 8.49992C5.62916 8.49992 4.91666 7.78742 4.91666 6.91659C4.91666 6.04575 5.62916 5.33325 6.5 5.33325C7.37083 5.33325 8.08333 6.04575 8.08333 6.91659C8.08333 7.78742 7.37083 8.49992 6.5 8.49992Z" fill="#E9B54A"/>
</svg>
