<svg width="173" height="27" viewBox="0 0 173 27" fill="none" xmlns="http://www.w3.org/2000/svg">
<g clip-path="url(#clip0_22_1188)">
<path fill-rule="evenodd" clip-rule="evenodd" d="M98.5986 13.6953C101.543 14.3695 103.637 15.3984 103.495 18.769C103.353 21.3945 101.011 23.0975 98.6341 23.6652L98.5986 13.6953ZM98.7051 3.1933C101.543 3.79646 102.643 4.7899 102.608 7.55733C102.537 10.4667 101.118 11.3892 98.5632 11.9923L98.7051 3.1933ZM88.7352 25.0844H104.914C114.671 25.1554 118.503 15.3274 107.717 12.3826C110.272 10.8924 113.039 9.79256 112.258 5.18018C110.236 -0.851407 96.1505 0.816148 88.7707 0.816148V25.0844H88.7352Z" fill="#E9B54A"/>
<path fill-rule="evenodd" clip-rule="evenodd" d="M50.8072 0L32.2867 10.9633V0.745078H28.6677V25.7584L47.2592 14.6887V25.0488H50.8072V0Z" fill="#E9B54A"/>
<path fill-rule="evenodd" clip-rule="evenodd" d="M25.2617 22.1041C23.5941 23.1685 21.8201 23.9845 19.9042 24.6231C17.9528 25.2263 16.0724 25.5456 14.192 25.5456C10.2182 25.5456 6.84762 24.3393 4.11567 21.9621C1.38372 19.5495 0 16.5692 0 12.9857C0 9.47322 1.45468 6.42195 4.32855 3.93836C7.20242 1.41929 10.7859 0.17749 15.079 0.17749C17.4206 0.17749 19.5494 0.603249 21.5008 1.41929C23.7006 2.34176 24.8359 3.54808 24.8359 5.07372C24.8359 5.6414 24.6231 6.10263 24.1618 6.52839C23.7006 6.95415 23.0265 7.16703 22.1395 7.16703C20.7557 7.16703 19.4785 6.70579 18.2721 5.78331C17.0658 4.86084 16.1079 3.61904 15.3628 1.98697C14.2274 3.05136 13.3404 4.47056 12.6308 6.24455C11.9212 8.05403 11.531 9.89898 11.531 11.8149C11.531 14.7597 12.276 17.1724 13.7662 19.0528C15.2209 20.9687 17.1723 21.9267 19.6204 21.9267C20.9686 21.9267 22.5652 21.5009 24.4457 20.6849L25.2617 22.1041Z" fill="#E9B54A"/>
<path fill-rule="evenodd" clip-rule="evenodd" d="M144.332 12.7372C144.332 14.5112 143.942 16.2143 143.161 17.8818C142.203 19.9396 140.784 21.5362 138.868 22.7426C136.527 24.1972 133.653 24.9423 130.211 24.9423C126.096 24.9423 122.725 23.7715 120.099 21.4298C112.613 14.937 117.155 0.354736 130.211 0.354736C134.22 0.354736 137.591 1.52557 140.323 3.83177C143.019 6.17344 144.332 9.15375 144.332 12.7372ZM133.085 12.2405C133.085 10.2536 132.837 8.33771 132.376 6.52824C131.879 4.75424 131.169 3.22861 130.282 2.02229C129.466 3.15765 128.792 4.6478 128.26 6.49276C127.728 8.37319 127.444 10.2536 127.444 12.205C127.444 16.1788 128.402 19.8332 130.282 23.2748C132.163 19.8332 133.085 16.1788 133.085 12.2405Z" fill="#E9B54A"/>
<path fill-rule="evenodd" clip-rule="evenodd" d="M83.7325 25.0134H75.6786H73.0176V5.25114L66.2055 26.5036L59.2514 5.6769V25.0134H55.6324V0.709717H67.8021L69.1503 5.03826C69.5406 4.00935 69.9308 2.98043 70.3566 1.95151C70.534 1.52575 70.7114 1.13548 70.8888 0.709717H75.6431H75.6786H75.8915H76.1398H76.3882H76.6365H76.8849H83.7325V3.26427V3.90291V17.0305V25.0134Z" fill="#E9B54A"/>
<path fill-rule="evenodd" clip-rule="evenodd" d="M156.928 0.780518L173 25.1197L159.482 25.1552L153.344 13.8726L147.348 25.0488L143.906 25.0842L156.928 0.780518Z" fill="#E9B54A"/>
</g>
<defs>
<clipPath id="clip0_22_1188">
<rect width="173" height="26.5035" fill="white"/>
</clipPath>
</defs>
</svg>
