<svg width="12" height="12" viewBox="0 0 12 12" fill="none" xmlns="http://www.w3.org/2000/svg">
<path d="M4.83333 9.50008C5.86874 9.49987 6.8743 9.15325 7.68992 8.51541L10.2543 11.0797L11.0791 10.2549L8.51475 7.69058C9.15292 6.87488 9.49975 5.86909 9.5 4.83341C9.5 2.26033 7.40642 0.166748 4.83333 0.166748C2.26025 0.166748 0.166668 2.26033 0.166668 4.83341C0.166668 7.4065 2.26025 9.50008 4.83333 9.50008ZM4.83333 1.33341C6.76359 1.33341 8.33333 2.90316 8.33333 4.83341C8.33333 6.76366 6.76359 8.33341 4.83333 8.33341C2.90308 8.33341 1.33333 6.76366 1.33333 4.83341C1.33333 2.90316 2.90308 1.33341 4.83333 1.33341Z" fill="#301A0C"/>
</svg>
