<svg width="30" height="27" viewBox="0 0 30 27" fill="none" xmlns="http://www.w3.org/2000/svg">
<path d="M28.504 5.99199C28.288 5.956 28.072 5.938 27.856 5.938C26.812 5.938 25.894 6.19 25.102 6.69399C24.346 7.16199 23.788 7.864 23.428 8.8C23.068 9.7 22.888 10.762 22.888 11.986C22.888 12.13 22.888 12.256 22.888 12.364C22.888 12.616 22.888 12.868 22.888 13.12C22.924 13.372 22.96 13.624 22.996 13.876H29.206V26.89H17.272V12.796C17.272 9.952 17.722 7.576 18.622 5.668C19.558 3.724 20.746 2.41 22.186 1.72599C23.662 1.042 25.138 0.699997 26.614 0.699997C27.406 0.699997 28.27 0.789997 29.206 0.969997L28.504 5.99199ZM11.872 5.99199C11.656 5.956 11.44 5.938 11.224 5.938C10.18 5.938 9.262 6.19 8.47 6.69399C7.714 7.16199 7.156 7.864 6.796 8.8C6.436 9.7 6.256 10.762 6.256 11.986C6.256 12.13 6.256 12.256 6.256 12.364C6.256 12.616 6.256 12.868 6.256 13.12C6.292 13.372 6.328 13.624 6.364 13.876H12.574V26.89H0.640001V12.796C0.640001 9.952 1.09 7.576 1.99 5.668C2.926 3.724 4.114 2.41 5.554 1.72599C7.03 1.042 8.506 0.699997 9.982 0.699997C10.774 0.699997 11.638 0.789997 12.574 0.969997L11.872 5.99199Z" fill="#ECECEC"/>
</svg>
